<svg width="50" height="50" viewBox="0 0 50 50" fill="none" xmlns="http://www.w3.org/2000/svg">
<g clip-path="url(#clip0_9796_2355)">
<path d="M25.0001 0C38.5849 0 49.5969 11.1925 49.5969 25C49.5969 38.8075 38.5849 50 25.0001 50C11.4153 50 0.40332 38.8075 0.40332 25C0.40332 11.1925 11.4153 0 25.0001 0ZM25.0001 5C19.7813 5 14.7763 7.10714 11.0861 10.8579C7.39583 14.6086 5.32268 19.6957 5.32268 25C5.32268 30.3043 7.39583 35.3914 11.0861 39.1421C14.7763 42.8929 19.7813 45 25.0001 45C30.2189 45 35.2239 42.8929 38.9141 39.1421C42.6044 35.3914 44.6775 30.3043 44.6775 25C44.6775 19.6957 42.6044 14.6086 38.9141 10.8579C35.2239 7.10714 30.2189 5 25.0001 5ZM26.2299 27.5C26.8569 27.5007 27.4599 27.7447 27.9157 28.1821C28.3716 28.6195 28.6459 29.2174 28.6827 29.8535C28.7194 30.4896 28.5158 31.1159 28.1134 31.6046C27.711 32.0932 27.1402 32.4072 26.5177 32.4825L26.2299 32.5H17.8818L15.8329 36.2225C15.529 36.7841 15.0245 37.2057 14.4235 37.4001C13.8226 37.5944 13.1712 37.5468 12.6038 37.267C12.0365 36.9871 11.5965 36.4965 11.3749 35.8964C11.1532 35.2964 11.1668 34.6327 11.4128 34.0425L11.5407 33.7775L12.2442 32.5025H10.9799C10.3492 32.5076 9.74063 32.2662 9.28003 31.8281C8.81943 31.3901 8.54198 30.789 8.50504 30.149C8.46809 29.509 8.67446 28.879 9.08151 28.3893C9.48855 27.8995 10.0652 27.5874 10.6922 27.5175L10.9799 27.5H26.2299ZM30.8861 20.03L35.0011 27.5H39.0203C39.6726 27.5 40.2982 27.7634 40.7595 28.2322C41.2208 28.7011 41.4799 29.337 41.4799 30C41.4799 30.663 41.2208 31.2989 40.7595 31.7678C40.2982 32.2366 39.6726 32.5 39.0203 32.5H37.756L38.4619 33.78C38.7724 34.3579 38.8461 35.037 38.6669 35.6698C38.4876 36.3025 38.07 36.8379 37.5048 37.1596C36.9395 37.4813 36.2722 37.5633 35.6477 37.3878C35.0233 37.2124 34.4922 36.7936 34.1698 36.2225L26.594 22.4725C26.2835 21.8946 26.2098 21.2155 26.389 20.5827C26.5682 19.95 26.9858 19.4146 27.5511 19.0929C28.1164 18.7712 28.7837 18.6892 29.4081 18.8647C30.0326 19.0401 30.5637 19.4589 30.8861 20.03ZM24.6877 8.78L25.0001 9.3475L25.3125 8.78C25.6311 8.20117 26.163 7.7747 26.791 7.59444C27.4191 7.41417 28.0918 7.49485 28.6613 7.81875C29.2308 8.14265 29.6504 8.68322 29.8278 9.32154C30.0051 9.95987 29.9257 10.6437 29.6071 11.2225L22.0313 24.9725C21.7088 25.5436 21.1777 25.9624 20.5533 26.1378C19.9289 26.3133 19.2615 26.2313 18.6963 25.9096C18.131 25.5879 17.7134 25.0525 17.5342 24.4198C17.355 23.787 17.4286 23.1079 17.7391 22.53L22.1813 14.465L20.3956 11.2225C20.2337 10.9358 20.1294 10.6194 20.0887 10.2914C20.0479 9.96352 20.0716 9.63064 20.1582 9.31207C20.2449 8.99349 20.3928 8.69554 20.5935 8.43546C20.7942 8.17537 21.0436 7.95832 21.3273 7.79684C21.6111 7.63537 21.9235 7.53269 22.2466 7.49475C22.5696 7.4568 22.8969 7.48434 23.2094 7.57577C23.5219 7.6672 23.8134 7.82071 24.0672 8.02741C24.3209 8.23412 24.5319 8.48991 24.6877 8.78Z" fill="white"/>
</g>
<defs>
<clipPath id="clip0_9796_2355">
<rect width="50" height="50" fill="white"/>
</clipPath>
</defs>
</svg>
